<svg height="24" viewBox="0 0 334.005 84.094" fill="none" xmlns="http://www.w3.org/2000/svg">
    <path
    fill="#fff"
    d="M27.361 64.094a1.436 1.436 0 0 0 1.388-1.387V15.841a1.436 1.436 0 0 0-1.387-1.387H23.2a1.31 1.31 0 0 0-1.241.876l-7.227 14.454c-.146.219-.365.219-.438 0L7.286 15.33a1.381 1.381 0 0 0-1.237-.876h-4.6a1.372 1.372 0 0 0-1.314 1.387v46.866a1.372 1.372 0 0 0 1.314 1.387h4.015a1.436 1.436 0 0 0 1.385-1.387V27.594c0-.292.219-.292.365 0l6.57 12.994c.365.73 1.022.73 1.387 0l6.569-12.994c.146-.292.292-.292.292 0v35.113a1.372 1.372 0 0 0 1.317 1.387ZM57.949 6.205a6.216 6.216 0 0 0-6.278-6.2 6.138 6.138 0 0 0-6.132 6.2 6.138 6.138 0 0 0 6.132 6.205 6.216 6.216 0 0 0 6.278-6.205Zm-3.5 0a2.727 2.727 0 0 1-2.774 2.774 2.653 2.653 0 0 1-2.628-2.774 2.68 2.68 0 0 1 2.628-2.7 2.758 2.758 0 0 1 2.774 2.7Zm1.9 42.413c.146.657-.219.949-.8.949h-7.967a.709.709 0 0 1-.73-.949l4.672-22.192c.073-.292.292-.292.365 0Zm8.388 15.476a1.268 1.268 0 0 0 1.312-1.679L55.612 15.549a1.339 1.339 0 0 0-1.314-1.095H49.48a1.275 1.275 0 0 0-1.314 1.095L37.289 62.488a1.2 1.2 0 0 0 1.241 1.606h4.088a1.369 1.369 0 0 0 1.314-1.168l1.387-6.57a1.17 1.17 0 0 1 1.314-1.095h9.636a1.318 1.318 0 0 1 1.46 1.168l1.314 6.643a1.337 1.337 0 0 0 1.314 1.022Z"
    />
    <path
    fill="#fff"
    d="M96.984 63.811a1.354 1.354 0 0 0 1.368-1.3v-3.308a1.416 1.416 0 0 0-1.368-1.368h-14.04a1.354 1.354 0 0 1-1.368-1.3v-40.32a1.416 1.416 0 0 0-1.368-1.368h-4.176a1.354 1.354 0 0 0-1.3 1.368v46.228a1.354 1.354 0 0 0 1.3 1.368Zm20.664 0c8.712 0 14.544-6.264 14.544-14.04a12.387 12.387 0 0 0-5.688-10.8c-.36-.216-.288-.5 0-.72a12.353 12.353 0 0 0 5.112-10.3c0-7.992-6.048-13.1-13.824-13.1h-10.8a1.354 1.354 0 0 0-1.3 1.368v46.224a1.354 1.354 0 0 0 1.3 1.368Zm-3.816-27.648a1.231 1.231 0 0 1-1.3-1.224V22.051a1.291 1.291 0 0 1 1.3-1.3h3.1c5.112 0 7.92 2.808 7.92 7.56 0 4.32-2.52 7.848-7.488 7.848Zm0 21.744a1.291 1.291 0 0 1-1.3-1.3V43.291a1.291 1.291 0 0 1 1.3-1.3h3.528c5.544 0 7.992 3.888 7.992 7.7a7.943 7.943 0 0 1-8.208 8.22Z"
    />
    <path
    fill="#fff"
    d="M156.07 48.547c.144.648-.216.936-.792.936h-7.848a.7.7 0 0 1-.72-.936l4.608-21.888c.072-.288.288-.288.36 0Zm8.28 15.264a1.25 1.25 0 0 0 1.3-1.656l-10.3-46.224a1.321 1.321 0 0 0-1.3-1.08h-4.748a1.257 1.257 0 0 0-1.3 1.08l-10.724 46.296a1.183 1.183 0 0 0 1.224 1.584h4.032a1.35 1.35 0 0 0 1.3-1.152l1.368-6.48a1.154 1.154 0 0 1 1.3-1.08h9.5a1.3 1.3 0 0 1 1.44 1.152l1.3 6.552a1.319 1.319 0 0 0 1.288 1.008Zm17.928-27.288a1.307 1.307 0 0 1-1.3-1.368V22.123a1.247 1.247 0 0 1 1.3-1.3h3.524c4.68 0 7.56 3.312 7.56 7.776 0 5.04-3.528 7.92-7.56 7.92Zm17.208 27.288a1.3 1.3 0 0 0 1.3-1.872l-7.784-20.016a1.216 1.216 0 0 1 .576-1.728 13.362 13.362 0 0 0 6.916-11.884c0-8.064-5.76-13.464-14.112-13.464H175.51a1.354 1.354 0 0 0-1.3 1.368v46.228a1.354 1.354 0 0 0 1.3 1.368h4.1a1.416 1.416 0 0 0 1.372-1.368v-18.72a1.06 1.06 0 0 1 1.152-1.152h3.24a1.147 1.147 0 0 1 1.152.864l7.056 19.44a1.234 1.234 0 0 0 1.22.936Z"
    />
    <path fill="#a7beb0" d="M0 79.236h60.552v4.858H0z" />
    <path fill="#b21f18" d="M60.553 79.236h17.296v4.858H60.553z" />
    <path fill="#e9ac89" d="M77.849 79.236h37.933v4.858H77.849z" />
    <path fill="#d1802f" d="M115.782 79.236h64.003v4.858h-64.003z" />
    <path fill="#f5a11e" d="M179.785 79.236h9.579v4.858h-9.579z" />
    <path fill="#ffd57f" d="M189.365 79.236h24.708v4.858h-24.708z" />
    <path fill="#a7beb0" d="M315.523 79.236h18.481v4.858h-18.481z" />
    <path fill="#e2db62" d="M271.394 79.236h44.128v4.858h-44.128z" />
    <path fill="#94ab76" d="M256.929 79.236h14.465v4.858h-14.465z" />
    <path fill="#6e7f4e" d="M214.073 79.236h42.855v4.858h-42.855z" />
</svg>