<?xml version="1.0" encoding="UTF-8"?>
<svg xmlns="http://www.w3.org/2000/svg" xmlns:xlink="http://www.w3.org/1999/xlink" id="Layer_1" data-name="Layer 1" viewBox="0 0 914 504">
  <defs>
    <style>
      .cls-1 {
        clip-path: url(#clippath);
      }

      .cls-2 {
        fill: none;
      }

      .cls-2, .cls-3, .cls-4, .cls-5, .cls-6, .cls-7, .cls-8, .cls-9, .cls-10, .cls-11, .cls-12, .cls-13 {
        stroke-width: 0px;
      }

      .cls-14 {
        clip-path: url(#clippath-1);
      }

      .cls-15 {
        clip-path: url(#clippath-4);
      }

      .cls-16 {
        clip-path: url(#clippath-3);
      }

      .cls-17 {
        clip-path: url(#clippath-2);
      }

      .cls-3 {
        fill: #77814f;
      }

      .cls-4 {
        fill: #273138;
      }

      .cls-5 {
        fill: #36373a;
      }

      .cls-6 {
        fill: #363639;
      }

      .cls-7 {
        fill: #e1db77;
      }

      .cls-8 {
        fill: #303438;
      }

      .cls-9 {
        fill: #98aa78;
      }

      .cls-10 {
        fill: #a0ad73;
      }

      .cls-11 {
        fill: #727f54;
      }

      .cls-12 {
        fill: #e7dd70;
      }

      .cls-13 {
        fill: #e9a543;
      }
    </style>
    <clipPath id="clippath">
      <rect class="cls-2" x="249.22" y="190.08" width="347.56" height="255.31"></rect>
    </clipPath>
    <clipPath id="clippath-1">
      <rect class="cls-2" x="682.38" y="304.49" width="210.69" height="152.86"></rect>
    </clipPath>
    <clipPath id="clippath-2">
      <rect class="cls-2" x="107.74" y="358.76" width="135.04" height="127.94"></rect>
    </clipPath>
    <clipPath id="clippath-3">
      <rect class="cls-2" x="30.61" y="41.07" width="167.96" height="127.92"></rect>
    </clipPath>
    <clipPath id="clippath-4">
      <rect class="cls-2" x="664.36" y="63.9" width="203.8" height="86.45"></rect>
    </clipPath>
  </defs>
  <g class="cls-1">
    <path class="cls-13" d="m420.99,313.02s46.82,58.27,56.31,16.09c9.5-42.18,59.37-33.15,15.95-56.68-43.42-23.52-26.85-47.29-26.85-47.29l15.43-19.18s-38.76-12.47-76.38,6.12c-37.62,18.58-47.79,39.44-47.79,39.44,0,0,34.56-9.28,51.81,6.66,23.12,21.37,11.52,54.83,11.52,54.83"></path>
    <path class="cls-8" d="m566.76,279.62c23.9,62.25-7.2,132.09-69.45,155.99-62.25,23.9-132.09-7.2-155.99-69.45-23.9-62.25,7.2-132.09,69.45-155.99,62.25-23.9,132.09,7.2,155.99,69.45"></path>
    <path class="cls-9" d="m349.24,309.99c-.51-.89-1.19-1.66-2.02-2.27-7.93-5.89-42.45-33.72-56.12,10.59-3.62,11.73,16.01,27.42,23.55,27.39,1.82,0,3.59-.67,4.98-1.87l27.91-24.05c2.83-2.44,3.55-6.57,1.7-9.78"></path>
    <path class="cls-9" d="m369.83,236.3s43.64-12.53,61.47,37.27c15.67,43.76-28.9,44.83-39.95,44.44-1.97-.07-3.94.09-5.87.52-10.76,2.37-40.7,11.89-1.9,39.26,46.33,32.68,24.06,50.27,24.06,50.27,0,0-19.83,23.59-47.28-9.2-26.2-31.3-27.03-68.61-27.08-69.74-.02-.03-5.94-51.37,36.54-92.81"></path>
    <path class="cls-11" d="m419.43,370.34c7.29-13.36,17.89-24.14,32.28-20.8,14.39,3.34,21.46,17.1,19.83,32.89-1.56,15.14-17.89,24.14-32.28,20.8-14.39-3.34-26.4-20.86-19.83-32.89"></path>
    <path class="cls-7" d="m421.61,309.5c-.52,3.37.61,6.76,3.03,9.16,12.09,11.99,47.58,43.65,53.2,8.32,6.79-42.7,57.14-36.87,12.31-57.58-39.42-18.21-32.57-39.55-30.34-44.45.26-.57.58-1.11.95-1.63l3.51-4.98c4.89-6.94.12-16.51-8.36-16.83-14.86-.57-36.55,1.34-57.23,13.25-11.73,6.76-20.6,13.57-27.23,19.7-7.23,6.69-2.32,18.61,7.53,18.48,9.26-.13,19.25,1.56,26.66,7.57,18.7,15.2,17.56,38.75,15.99,48.97"></path>
    <path class="cls-7" d="m413.38,209.08c2.65,6.9-.63,14.58-7.33,17.15-6.7,2.57-14.28-.94-16.93-7.84-2.65-6.9.63-14.58,7.33-17.15,6.7-2.57,14.28.94,16.93,7.84"></path>
    <path class="cls-7" d="m385.72,198.76c2.65,6.9-.63,14.58-7.33,17.15-6.7,2.57-14.28-.94-16.93-7.84-2.65-6.9.63-14.58,7.33-17.15,6.7-2.57,14.28.94,16.93,7.84"></path>
    <path class="cls-7" d="m346.49,218.39c5.45,14.21-1.3,30.02-15.1,35.32-13.79,5.29-29.39-1.93-34.85-16.14-5.45-14.21,1.3-30.02,15.1-35.32,13.79-5.29,29.39,1.93,34.85,16.14"></path>
    <path class="cls-9" d="m297.93,360.82c2.24,5.83-.53,12.31-6.19,14.48-5.66,2.17-12.06-.79-14.29-6.62-2.24-5.83.53-12.31,6.19-14.48s12.06.79,14.29,6.62"></path>
    <path class="cls-9" d="m283.95,326.42c3.65,9.52-.87,20.11-10.11,23.66-9.24,3.55-19.69-1.3-23.35-10.82-3.65-9.52.87-20.11,10.11-23.66,9.24-3.55,19.69,1.3,23.35,10.82"></path>
    <path class="cls-8" d="m556.47,430.45c-18.43,33.52-69.12,4.72-49.75-28.27,18.43-33.52,69.12-4.71,49.75,28.27"></path>
    <path class="cls-8" d="m594.43,417.08c-4.78,8.41-15.28,11.47-23.44,6.83-8.17-4.64-10.91-15.22-6.13-23.64,4.78-8.41,15.28-11.47,23.44-6.83,8.17,4.64,10.91,15.22,6.13,23.64"></path>
    <path class="cls-11" d="m428.77,337.71c1.67-7.2,8.69-11.73,15.68-10.11,6.99,1.62,11.3,8.77,9.63,15.98-1.67,7.2-7,14.44-13.99,12.82-6.99-1.62-13-11.49-11.33-18.69"></path>
  </g>
  <g class="cls-14">
    <path class="cls-5" d="m713.09,390.65c14.79-12.09-29.01-86.15,13.21-86.15,50.75,0,89.95,49.45,72.03,102.8-8.85,26.34-39.33,48.53-67.08,49.93-45.24,2.27-63.25-25.46-36.08-51.64"></path>
    <path class="cls-5" d="m815.37,323.16c0,6.13-4.82,11.09-10.77,11.09s-10.77-4.97-10.77-11.09,4.82-11.09,10.77-11.09,10.77,4.97,10.77,11.09"></path>
    <path class="cls-5" d="m811.85,359.7c.34,24.22-36.57,24.22-36.23,0-.34-24.22,36.57-24.22,36.23,0"></path>
  </g>
  <g>
    <path class="cls-6" d="m826.27,393.35c0-.19.06-.34.19-.47.13-.13.27-.19.44-.19h1.5c.19,0,.34.06.47.19.13.13.19.29.19.47,0,1.91-.62,3.46-1.85,4.65s-2.76,1.78-4.58,1.78-3.3-.59-4.51-1.78c-1.21-1.19-1.82-2.69-1.82-4.51v-11.72c0-1.75.62-3.24,1.87-4.48,1.25-1.24,2.76-1.85,4.53-1.85s3.36.58,4.56,1.75c1.2,1.17,1.8,2.68,1.8,4.55v.11c0,.16-.06.31-.19.45-.13.14-.29.21-.47.21h-1.5c-.16,0-.31-.06-.44-.19s-.19-.29-.19-.47v-.17c0-1.05-.35-1.92-1.05-2.61-.7-.69-1.56-1.03-2.59-1.03s-1.84.36-2.5,1.07c-.66.71-1,1.57-1,2.57v11.93c0,1,.34,1.85,1.01,2.55s1.52,1.05,2.52,1.05,1.85-.36,2.55-1.07c.7-.71,1.05-1.58,1.05-2.61v-.17Z"></path>
    <path class="cls-6" d="m845.01,393.46c0,1.82-.64,3.33-1.91,4.53-1.27,1.2-2.8,1.8-4.6,1.8s-3.32-.59-4.58-1.78c-1.26-1.19-1.89-2.7-1.89-4.55v-11.72c0-1.82.64-3.32,1.91-4.51,1.27-1.19,2.8-1.78,4.6-1.78s3.32.59,4.58,1.78c1.26,1.19,1.89,2.69,1.89,4.51v11.72Zm-2.8-11.68c0-1.07-.36-1.96-1.08-2.68-.72-.71-1.59-1.07-2.59-1.07s-1.89.36-2.61,1.08c-.71.72-1.07,1.61-1.07,2.66v11.72c0,1.05.36,1.94,1.07,2.66.71.72,1.58,1.08,2.61,1.08s1.89-.36,2.61-1.08c.71-.72,1.07-1.61,1.07-2.66v-11.72Z"></path>
  </g>
  <path class="cls-6" d="m851.33,401.53c-.35,0-.63-.31-.63-.66v-.56c0-.31.14-.56.31-.8l4.44-5.18c.8-.94,1.22-1.64,1.22-2.41s-.87-1.29-1.78-1.29c-1.05,0-1.78.63-1.82,1.4-.03.31-.24.56-.63.56h-1.12c-.35,0-.66-.31-.66-.66,0-2.03,1.78-3.64,4.34-3.64s4.2,1.47,4.2,3.46c0,1.5-.59,2.52-1.68,3.71l-3.08,3.43c-.24.31-.17.56.21.56h3.78c.35,0,.66.31.66.66v.8c0,.35-.31.63-.66.63h-7.1Z"></path>
  <g class="cls-17">
    <path class="cls-10" d="m149.43,373.08s29.5-2.27,33.28,31.01c3.78,33.28-32.52,21.18-32.52,21.18,0,0-32.9-3.03-9.08,23.82,23.83,26.85,7.55,34.47,7.55,34.47,0,0-15.5,12.43-26.84-12.15-11.35-24.58-7.56-47.27-7.56-47.27,0,0,5.67-35.17,35.17-51.05"></path>
    <path class="cls-10" d="m146.74,392.24c-3.58,7.51-10.83.34-19.86-3-6.24-2.31-14.78-.69-9.7-10.62,5.88-11.5,8.76-.94,15.71,2.54,6.94,3.48,17.24,4.67,13.86,11.09"></path>
    <path class="cls-10" d="m121.63,365.91c0,3.95-3.11,7.16-6.95,7.16s-6.95-3.2-6.95-7.16,3.11-7.16,6.95-7.16,6.95,3.2,6.95,7.16"></path>
  </g>
  <path class="cls-6" d="m174.54,460.35c-.3,0-.5-.14-.59-.42l-6.58-17.07c-.07-.12-.13-.12-.17,0v16.82c0,.16-.06.31-.19.45-.13.14-.29.21-.47.21h-1.36c-.16,0-.31-.06-.44-.19s-.19-.29-.19-.47v-22.45c0-.19.06-.34.19-.47.13-.13.27-.19.44-.19h1.89c.3,0,.51.14.63.42l6.5,16.58c.05.07.09.07.14,0v-16.33c0-.19.06-.34.19-.47.13-.13.27-.19.44-.19h1.36c.19,0,.34.07.47.21.13.14.19.29.19.46v22.45c0,.16-.06.31-.19.45-.13.14-.29.21-.47.21h-1.78Z"></path>
  <path class="cls-6" d="m181.01,464.38c-.35,0-.63-.31-.63-.66v-.56c0-.31.14-.56.31-.8l4.44-5.18c.8-.94,1.22-1.64,1.22-2.41s-.87-1.29-1.78-1.29c-1.05,0-1.78.63-1.82,1.4-.03.31-.24.56-.63.56h-1.12c-.35,0-.66-.31-.66-.66,0-2.03,1.78-3.64,4.34-3.64s4.2,1.47,4.2,3.46c0,1.5-.59,2.52-1.68,3.71l-3.08,3.43c-.24.31-.17.56.21.56h3.78c.35,0,.66.31.66.66v.8c0,.35-.31.63-.66.63h-7.1Zm23.85-10.18c0,3.71-2.97,6.43-6.64,6.43s-6.64-2.59-6.64-6.43v-11.29c0-3.74,2.8-6.61,6.68-6.61,3.64,0,6.61,2.59,6.61,6.4v11.5Zm-3.29-11.29c0-2.17-1.47-3.64-3.32-3.64s-3.36,1.5-3.36,3.64v11.15c0,2.13,1.43,3.64,3.36,3.64,1.82,0,3.32-1.47,3.32-3.43v-11.36Z"></path>
  <g class="cls-16">
    <path class="cls-12" d="m76.65,134.74c-1.6,1.79-2.28,4.22-1.79,6.57,2.27,10.88,9.87,39.09,25.03,22.65,18.56-20.12,43.05.62,26.69-26.03-14.05-22.88-3.79-31.85-.61-33.93.43-.28.88-.51,1.36-.69l2.27-.88c5.6-2.17,6.49-9.71,1.56-13.13-7.67-5.32-19.31-11.32-33.62-12.25-7.56-.49-13.95-.17-19.23.53-6.7.89-8.88,9.63-3.33,13.49,4.46,3.1,8.53,7.24,10.17,12.53,4.44,14.3-4.02,26.14-8.51,31.14"></path>
    <path class="cls-12" d="m103.92,77.23c-.73,4.62-4.96,7.8-9.45,7.08-4.49-.71-7.53-5.03-6.8-9.66.73-4.62,4.96-7.8,9.45-7.09,4.49.71,7.53,5.04,6.8,9.66"></path>
    <path class="cls-12" d="m92.02,62.81c-.73,4.62-4.96,7.8-9.45,7.08-4.49-.71-7.53-5.03-6.8-9.66.73-4.62,4.96-7.8,9.45-7.09,4.49.71,7.53,5.04,6.8,9.66"></path>
    <path class="cls-12" d="m64.29,61.16c-1.51,9.52-10.22,16.05-19.46,14.59-9.24-1.46-15.51-10.37-14-19.88,1.51-9.52,10.22-16.05,19.46-14.59,9.24,1.46,15.51,10.37,14,19.88"></path>
  </g>
  <g>
    <path class="cls-6" d="m144.79,127.73c0-.19.06-.34.19-.47.13-.13.27-.19.44-.19h1.5c.19,0,.34.06.47.19.13.13.19.29.19.47,0,1.91-.62,3.46-1.85,4.65s-2.76,1.78-4.58,1.78-3.3-.59-4.51-1.78c-1.21-1.19-1.82-2.69-1.82-4.51v-11.72c0-1.75.62-3.24,1.87-4.48,1.25-1.24,2.76-1.85,4.53-1.85s3.36.58,4.56,1.75c1.2,1.17,1.8,2.68,1.8,4.55v.11c0,.16-.06.31-.19.45s-.29.21-.47.21h-1.5c-.16,0-.31-.06-.44-.19s-.19-.29-.19-.47v-.17c0-1.05-.35-1.92-1.05-2.61-.7-.69-1.56-1.03-2.59-1.03s-1.84.36-2.5,1.07c-.66.71-1,1.57-1,2.57v11.93c0,1,.34,1.85,1.01,2.55s1.52,1.05,2.52,1.05,1.85-.36,2.55-1.07c.7-.71,1.05-1.58,1.05-2.61v-.17Z"></path>
    <path class="cls-6" d="m161.68,133.89c-.16,0-.31-.06-.44-.19-.13-.13-.19-.29-.19-.47v-9.55c0-.19-.07-.34-.21-.47-.14-.13-.29-.19-.45-.19h-5.74c-.16,0-.31.06-.44.19-.13.13-.19.29-.19.47v9.55c0,.16-.06.31-.19.45s-.29.21-.47.21h-1.5c-.16,0-.31-.06-.44-.19s-.19-.29-.19-.47v-22.45c0-.19.06-.34.19-.47.13-.13.27-.19.44-.19h1.5c.19,0,.34.07.47.21.13.14.19.29.19.46v9.06c0,.19.06.34.19.47s.27.19.44.19h5.74c.16,0,.31-.06.45-.19.14-.13.21-.29.21-.47v-9.06c0-.19.06-.34.19-.47.13-.13.27-.19.44-.19h1.5c.16,0,.31.07.45.21s.21.29.21.46v22.45c0,.16-.07.31-.21.45-.14.14-.29.21-.45.21h-1.5Z"></path>
  </g>
  <path class="cls-6" d="m172.38,137.91c-.35,0-.63-.31-.63-.66v-1.15c0-.28-.07-.31-.31-.31h-3.85c-.35,0-.63-.28-.63-.63v-.49c0-.38.24-.94.49-1.47l3.64-7.97c.17-.35.28-.38.63-.38h1.19c.45,0,.8.42.56.94l-3.71,7.8c-.07.14-.07.24.1.24h1.61c.24,0,.31-.07.35-.31l.07-1.15c.03-.35.31-.66.66-.66h1.01c.35,0,.66.31.66.66v1.15c0,.24.14.31.35.31h.59c.31,0,.59.28.59.63v.73c0,.35-.28.59-.59.59h-.59c-.24,0-.35.07-.35.31v1.15c0,.35-.31.66-.66.66h-1.19Z"></path>
  <g class="cls-15">
    <path class="cls-3" d="m707.96,73.81c0,4.68-3.68,8.48-8.23,8.48s-8.23-3.79-8.23-8.48,2.25-9.91,6.79-9.91,9.66,5.23,9.66,9.91"></path>
    <path class="cls-3" d="m698.35,101.52c-2.59,9.28-7.58,17.45-16.94,17.45s-15.68-7.48-16.94-17.45c-1.2-9.56,7.58-17.45,16.94-17.45s19.27,9.09,16.94,17.45"></path>
  </g>
  <g>
    <path class="cls-6" d="m713.45,98.11c-1.28-1-2.23-1.96-2.85-2.87-.62-.91-.93-1.98-.93-3.22,0-1.75.6-3.15,1.8-4.21,1.2-1.06,2.7-1.59,4.49-1.59s3.16.52,4.3,1.56c1.14,1.04,1.71,2.57,1.71,4.6v.25c0,.16-.07.31-.21.45s-.29.21-.46.21h-1.4c-.16,0-.31-.06-.44-.19s-.19-.29-.19-.47v-.07c0-1.19-.33-2.12-.98-2.78-.65-.66-1.49-1-2.52-1s-1.8.28-2.4.84-.89,1.31-.89,2.24c0,1.19.59,2.26,1.78,3.22l4.48,3.57c1.24.98,2.13,1.9,2.68,2.76.55.86.82,1.89.82,3.08,0,1.82-.62,3.29-1.85,4.41-1.24,1.12-2.8,1.68-4.69,1.68-1.75,0-3.21-.52-4.39-1.56-1.18-1.04-1.77-2.52-1.77-4.46v-.42c0-.19.06-.34.19-.47s.27-.19.44-.19h1.47c.16,0,.31.06.46.19.14.13.21.29.21.47v.21c0,1.14.34,2.03,1.03,2.68.69.64,1.53.96,2.54.96s1.86-.3,2.5-.89.96-1.44.96-2.54c0-.77-.17-1.41-.52-1.91-.35-.5-1.01-1.14-1.99-1.91l-3.39-2.62Z"></path>
    <path class="cls-6" d="m724.64,116.72c-.16,0-.31-.06-.44-.17-.13-.12-.19-.27-.19-.45v-1.19c0-.19.06-.34.19-.47.13-.13.27-.19.44-.19h.28c.98,0,1.68-.2,2.12-.61.43-.41.82-1.12,1.17-2.15l.35-1.12c.12-.37.12-.75,0-1.12l-4.9-15.25c-.09-.23-.07-.44.07-.63s.32-.28.52-.28h1.47c.33,0,.55.16.67.49l3.6,11.89c.12.42.23.43.35.04l3.78-11.86c.09-.37.34-.56.73-.56h1.15c.26,0,.46.1.59.3s.17.4.11.61l-5.95,17.87c-.58,1.79-1.24,3.05-1.96,3.78s-1.9,1.08-3.53,1.08h-.63Z"></path>
    <path class="cls-6" d="m749.54,110.28c-.16,0-.31-.06-.44-.19s-.19-.29-.19-.47v-10.91c0-1.07-.29-1.91-.86-2.52-.57-.61-1.35-.91-2.33-.91-1.05,0-1.91.33-2.57,1s-1,1.47-1,2.43v10.91c0,.16-.06.31-.19.45-.13.14-.29.21-.47.21h-1.36c-.16,0-.31-.06-.44-.19-.13-.13-.19-.29-.19-.47v-15.88c0-.19.06-.34.19-.47.13-.13.27-.19.44-.19h1.33c.16,0,.31.07.46.21.14.14.21.29.21.46v1.15c.91-1.4,2.3-2.1,4.16-2.1,1.66,0,2.95.51,3.88,1.54.93,1.03,1.4,2.43,1.4,4.2v11.09c0,.16-.07.31-.21.45s-.29.21-.46.21h-1.36Z"></path>
    <path class="cls-6" d="m761.71,110.28c-1.75,0-3.01-.38-3.79-1.15s-1.17-2.02-1.17-3.74v-9.93h-2.34c-.19,0-.34-.06-.47-.19-.13-.13-.19-.27-.19-.44v-1.08c0-.16.06-.32.19-.46.13-.14.29-.21.47-.21h2.34v-3.6c0-.19.06-.34.19-.47s.27-.19.44-.19h1.36c.19,0,.34.07.47.21s.19.29.19.46v3.6h3.39c.19,0,.34.07.47.21.13.14.19.29.19.46v1.08c0,.16-.06.31-.19.44s-.29.19-.47.19h-3.39v9.65c0,1,.2,1.72.61,2.15.41.43,1.1.65,2.08.65h.77c.19,0,.34.07.47.21.13.14.19.29.19.45v1.08c0,.16-.06.31-.19.44s-.29.19-.47.19h-1.15Z"></path>
    <path class="cls-6" d="m776.29,110.28c-.16,0-.31-.06-.44-.19s-.19-.29-.19-.47v-10.91c0-1.07-.29-1.91-.86-2.52-.57-.61-1.35-.91-2.33-.91-1.05,0-1.91.33-2.57,1s-1,1.47-1,2.43v10.91c0,.16-.06.31-.19.45-.13.14-.29.21-.47.21h-1.36c-.16,0-.31-.06-.44-.19-.13-.13-.19-.29-.19-.47v-22.45c0-.19.06-.34.19-.47.13-.13.27-.19.44-.19h1.36c.19,0,.34.07.47.21.13.14.19.29.19.46v7.69c.91-1.38,2.29-2.06,4.13-2.06,1.66,0,2.95.51,3.88,1.54.93,1.03,1.4,2.43,1.4,4.2v11.09c0,.16-.07.31-.21.45s-.29.21-.46.21h-1.36Z"></path>
    <path class="cls-6" d="m793.99,105.07c.23,0,.41.08.52.25.12.16.16.34.14.52-.21,1.52-.87,2.68-1.98,3.5s-2.49,1.22-4.14,1.22c-1.75,0-3.2-.56-4.35-1.68s-1.73-2.55-1.73-4.3v-5.7c0-1.79.59-3.26,1.77-4.39s2.65-1.7,4.42-1.7,3.19.52,4.34,1.57c1.14,1.05,1.71,2.5,1.71,4.34v3.11c0,.16-.06.31-.19.44s-.29.19-.47.19h-8.92v2.13c0,1.05.33,1.89.98,2.54.65.64,1.49.96,2.52.96,1.98,0,3.11-.8,3.39-2.41.09-.4.32-.59.67-.59h1.33Zm-1.96-6.16c0-1.17-.31-2.06-.94-2.69-.63-.63-1.48-.94-2.55-.94s-1.85.32-2.48.96c-.63.64-.94,1.5-.94,2.57v1.47h6.92v-1.36Z"></path>
    <path class="cls-6" d="m804.62,110.28c-1.75,0-3.01-.38-3.79-1.15s-1.17-2.02-1.17-3.74v-9.93h-2.34c-.19,0-.34-.06-.47-.19-.13-.13-.19-.27-.19-.44v-1.08c0-.16.06-.32.19-.46.13-.14.29-.21.47-.21h2.34v-3.6c0-.19.06-.34.19-.47s.27-.19.44-.19h1.36c.19,0,.34.07.47.21s.19.29.19.46v3.6h3.39c.19,0,.34.07.47.21.13.14.19.29.19.46v1.08c0,.16-.06.31-.19.44s-.29.19-.47.19h-3.39v9.65c0,1,.2,1.72.61,2.15.41.43,1.1.65,2.08.65h.77c.19,0,.34.07.47.21.13.14.19.29.19.45v1.08c0,.16-.06.31-.19.44s-.29.19-.47.19h-1.15Z"></path>
    <path class="cls-6" d="m809.3,89.33c-.35-.35-.52-.78-.52-1.29s.17-.92.52-1.28.78-.54,1.29-.54.92.18,1.28.54.54.79.54,1.28c0,.51-.18.94-.54,1.29s-.79.52-1.28.52c-.51,0-.94-.17-1.29-.52Zm.59,20.95c-.16,0-.31-.06-.44-.19s-.19-.29-.19-.47v-15.88c0-.19.06-.34.19-.47.13-.13.27-.19.44-.19h1.36c.16,0,.31.07.46.21.14.14.21.29.21.46v15.88c0,.16-.07.31-.21.45-.14.14-.29.21-.46.21h-1.36Z"></path>
    <path class="cls-6" d="m827.49,104.44c.44,0,.66.23.66.7,0,1.63-.57,2.94-1.71,3.93-1.14.99-2.55,1.49-4.23,1.49-1.77,0-3.22-.55-4.34-1.66s-1.68-2.54-1.68-4.28v-5.77c0-1.77.57-3.22,1.71-4.35s2.61-1.7,4.41-1.7c1.7,0,3.11.49,4.21,1.47s1.66,2.29,1.66,3.92c0,.19-.06.34-.19.47-.13.13-.27.19-.44.19h-1.36c-.4,0-.62-.2-.67-.59-.09-.93-.43-1.66-1.01-2.19s-1.34-.79-2.27-.79c-1.03,0-1.84.32-2.45.94-.61.63-.91,1.46-.91,2.48v5.98c0,1,.31,1.82.93,2.45.62.63,1.44.94,2.47.94.93,0,1.69-.25,2.27-.75s.9-1.24.94-2.22c.02-.44.23-.67.63-.67h1.36Z"></path>
  </g>
  <g>
    <path class="cls-6" d="m714.83,148.54c-.19,0-.34-.06-.47-.19-.13-.13-.19-.27-.19-.44v-1.19c0-.19.06-.34.19-.47s.29-.19.47-.19h.98c1.14,0,2-.26,2.57-.77s.86-1.36.86-2.55v-2.24c-1.05,1.26-2.48,1.89-4.3,1.89-1.61,0-2.91-.51-3.92-1.54-1-1.03-1.5-2.51-1.5-4.44v-5.7c0-1.87.54-3.35,1.61-4.44,1.07-1.1,2.45-1.64,4.13-1.64s2.98.59,4.06,1.78v-.84c0-.19.06-.34.19-.47s.27-.19.44-.19h1.29c.16,0,.32.07.46.21s.21.29.21.46v17.31c0,1.82-.5,3.22-1.5,4.2-1,.98-2.41,1.47-4.23,1.47h-1.33Zm4.41-17.52c0-1.26-.33-2.22-.98-2.88-.65-.67-1.5-1-2.55-1s-1.87.31-2.54.93c-.67.62-1,1.5-1,2.64v5.7c0,1.12.33,1.98.98,2.57.65.59,1.49.89,2.52.89,1.1,0,1.96-.36,2.61-1.07.64-.71.96-1.72.96-3.03v-4.76Z"></path>
    <path class="cls-6" d="m736.48,142.1c-.16,0-.31-.06-.44-.19-.13-.13-.19-.29-.19-.47v-1.01c-1.07,1.31-2.53,1.96-4.37,1.96-1.61,0-2.91-.51-3.92-1.54-1-1.03-1.5-2.51-1.5-4.44v-5.7c0-1.87.54-3.35,1.61-4.44,1.07-1.1,2.45-1.64,4.13-1.64s2.98.59,4.06,1.78v-.84c0-.19.06-.34.19-.47s.27-.19.44-.19h1.29c.16,0,.32.07.46.21s.21.29.21.46v15.88c0,.16-.07.31-.21.45s-.29.21-.46.21h-1.29Zm-.7-11.12c0-1.26-.33-2.22-.98-2.89-.65-.66-1.5-1-2.55-1s-1.87.31-2.54.93c-.67.62-1,1.5-1,2.64v5.77c0,1.12.33,1.98.98,2.57.65.59,1.49.89,2.52.89,1.1,0,1.96-.37,2.61-1.1.64-.73.96-1.75.96-3.06v-4.76Z"></path>
    <path class="cls-6" d="m751.83,129.83c-.37,0-.59-.15-.67-.46-.14-.75-.5-1.31-1.07-1.7s-1.29-.58-2.15-.58c-.91,0-1.64.19-2.2.58s-.84.92-.84,1.59.32,1.26.96,1.7c.64.43,1.42.79,2.33,1.07s1.82.59,2.73.93c.91.34,1.68.87,2.33,1.59.64.72.96,1.63.96,2.73,0,1.58-.58,2.83-1.75,3.74-1.17.91-2.62,1.36-4.37,1.36-1.61,0-2.96-.4-4.04-1.19-1.08-.79-1.74-1.96-1.98-3.5-.02-.16.02-.34.12-.53.11-.19.27-.28.51-.28h1.47c.35,0,.56.2.63.59.33,1.63,1.48,2.45,3.46,2.45.96,0,1.73-.22,2.31-.65.58-.43.87-1.02.87-1.77s-.32-1.32-.94-1.78c-.63-.47-1.39-.83-2.29-1.1s-1.8-.56-2.71-.87c-.91-.32-1.68-.82-2.31-1.52s-.94-1.59-.94-2.66c0-1.52.56-2.72,1.68-3.62,1.12-.9,2.52-1.35,4.2-1.35,1.51,0,2.79.36,3.83,1.08,1.04.72,1.67,1.85,1.91,3.39.02.16-.02.33-.12.49-.11.16-.27.25-.51.25h-1.4Z"></path>
    <path class="cls-6" d="m768.75,136.89c.23,0,.41.08.52.25.12.16.16.34.14.52-.21,1.52-.87,2.68-1.98,3.5s-2.49,1.22-4.14,1.22c-1.75,0-3.2-.56-4.35-1.68s-1.73-2.55-1.73-4.3v-5.7c0-1.79.59-3.26,1.77-4.39s2.65-1.7,4.42-1.7,3.19.52,4.34,1.57c1.14,1.05,1.71,2.5,1.71,4.34v3.11c0,.16-.06.31-.19.44s-.29.19-.47.19h-8.92v2.13c0,1.05.33,1.89.98,2.54.65.64,1.49.96,2.52.96,1.98,0,3.11-.8,3.39-2.41.09-.4.32-.59.67-.59h1.33Zm-1.96-6.16c0-1.17-.31-2.06-.94-2.69s-1.48-.94-2.55-.94-1.85.32-2.48.96c-.63.64-.94,1.5-.94,2.57v1.47h6.92v-1.36Z"></path>
    <path class="cls-6" d="m782.15,129.83c-.37,0-.59-.15-.67-.46-.14-.75-.5-1.31-1.07-1.7s-1.29-.58-2.15-.58c-.91,0-1.64.19-2.2.58s-.84.92-.84,1.59.32,1.26.96,1.7c.64.43,1.42.79,2.33,1.07s1.82.59,2.73.93,1.68.87,2.33,1.59c.64.72.96,1.63.96,2.73,0,1.58-.58,2.83-1.75,3.74-1.17.91-2.62,1.36-4.37,1.36-1.61,0-2.96-.4-4.04-1.19-1.08-.79-1.74-1.96-1.98-3.5-.02-.16.02-.34.12-.53.11-.19.27-.28.51-.28h1.47c.35,0,.56.2.63.59.33,1.63,1.48,2.45,3.46,2.45.96,0,1.73-.22,2.31-.65.58-.43.88-1.02.88-1.77s-.31-1.32-.94-1.78c-.63-.47-1.39-.83-2.29-1.1s-1.8-.56-2.71-.87c-.91-.32-1.68-.82-2.31-1.52s-.94-1.59-.94-2.66c0-1.52.56-2.72,1.68-3.62,1.12-.9,2.52-1.35,4.2-1.35,1.52,0,2.79.36,3.83,1.08,1.04.72,1.67,1.85,1.91,3.39.02.16-.02.33-.12.49-.11.16-.27.25-.51.25h-1.4Z"></path>
  </g>
  <g>
    <path class="cls-4" d="m870.72,391.12c.31,0,.44.26.42.48-.22,2-1.83,3.08-3.94,3.08-2.29,0-3.92-1.52-3.92-3.81v-3.54c0-2.33,1.69-3.87,3.98-3.87s3.89,1.34,3.89,3.79v2c0,.22-.2.4-.42.4h-5.5v1.23c0,1.25.84,2.02,2,2.02,1.08,0,1.78-.48,1.94-1.41.04-.18.13-.37.42-.37h1.12Zm-1.52-3.78c0-1.34-.77-2.09-1.98-2.09s-1.98.81-1.98,2.05v.86h3.96v-.81Z"></path>
    <path class="cls-4" d="m879.63,398.55c-.22,0-.4-.2-.4-.42v-4.58c-.57.66-1.41,1.12-2.64,1.12-2.09,0-3.37-1.34-3.37-3.81v-3.56c0-2.35,1.39-3.85,3.54-3.85,1.21,0,2,.48,2.53,1.1v-.51c0-.22.18-.42.4-.42h1.08c.22,0,.42.2.42.42v14.08c0,.22-.2.42-.42.42h-1.14Zm-.4-11.09c0-1.47-.86-2.2-2.05-2.2s-2,.68-2,2.13v3.41c0,1.41.84,2.07,1.98,2.07,1.25,0,2.07-.81,2.07-2.33v-3.08Z"></path>
  </g>
  <g>
    <path class="cls-6" d="m364.91,132.39c0-.6.21-1.11.62-1.53s.89-.62,1.41-.62h4.86c.6,0,1.11.21,1.53.62.41.41.62.92.62,1.53,0,6.18-2,11.19-5.99,15.03-3.99,3.84-8.93,5.76-14.8,5.76s-10.66-1.92-14.58-5.76c-3.92-3.84-5.88-8.7-5.88-14.58v-37.86c0-5.65,2.02-10.47,6.05-14.46s8.91-5.99,14.63-5.99,10.87,1.88,14.75,5.65c3.88,3.77,5.82,8.66,5.82,14.69v.34c0,.53-.21,1.02-.62,1.47s-.92.68-1.53.68h-4.86c-.53,0-1-.21-1.41-.62s-.62-.92-.62-1.53v-.56c0-3.39-1.13-6.2-3.39-8.42-2.26-2.22-5.05-3.33-8.36-3.33s-5.93,1.15-8.08,3.45c-2.15,2.3-3.22,5.07-3.22,8.31v38.54c0,3.24,1.09,5.99,3.28,8.25,2.18,2.26,4.9,3.39,8.14,3.39s5.99-1.15,8.25-3.45c2.26-2.3,3.39-5.1,3.39-8.42v-.56Z"></path>
    <path class="cls-6" d="m425.47,132.73c0,5.88-2.05,10.75-6.16,14.63-4.11,3.88-9.06,5.82-14.86,5.82s-10.74-1.92-14.8-5.76c-4.07-3.84-6.1-8.74-6.1-14.69v-37.86c0-5.88,2.05-10.74,6.16-14.58,4.11-3.84,9.06-5.76,14.86-5.76s10.74,1.92,14.8,5.76c4.07,3.84,6.1,8.7,6.1,14.58v37.86Zm-9.04-37.74c0-3.47-1.17-6.35-3.5-8.65-2.34-2.3-5.12-3.45-8.36-3.45s-6.12,1.17-8.42,3.5c-2.3,2.34-3.45,5.2-3.45,8.59v37.86c0,3.39,1.15,6.25,3.45,8.59,2.3,2.34,5.1,3.5,8.42,3.5s6.12-1.17,8.42-3.5c2.3-2.33,3.45-5.2,3.45-8.59v-37.86Z"></path>
    <path class="cls-6" d="m436.21,165.28c-.53,0-1-.21-1.41-.62-.42-.41-.62-.92-.62-1.53v-1.36c0-1.13.34-2.03,1.02-2.71l14.58-16.72c2.79-3.09,4.18-5.84,4.18-8.25,0-1.28-.62-2.39-1.86-3.33s-2.66-1.41-4.24-1.41-3.01.43-4.29,1.3-1.92,2.02-1.92,3.45c0,.6-.21,1.11-.62,1.53s-.88.62-1.41.62h-3.28c-.6,0-1.11-.23-1.53-.68-.42-.45-.62-.94-.62-1.47,0-3.24,1.34-5.99,4.01-8.25,2.67-2.26,5.97-3.39,9.89-3.39,3.69,0,6.82,1.07,9.38,3.22,2.56,2.15,3.84,4.8,3.84,7.97,0,2.26-.45,4.26-1.36,5.99-.9,1.73-2.33,3.73-4.29,5.99l-10.62,11.75c-.23.23-.36.49-.4.79-.04.3.04.55.23.73s.47.28.85.28h13c.6,0,1.11.21,1.53.62s.62.92.62,1.53v1.92c0,.53-.21,1-.62,1.41s-.92.62-1.53.62h-22.49Z"></path>
    <path class="cls-6" d="m506.95,135.44c.75,0,1.32.26,1.7.79s.53,1.09.45,1.7c-.68,4.9-2.81,8.66-6.38,11.3-3.58,2.64-8.04,3.96-13.39,3.96-5.65,0-10.34-1.81-14.07-5.42s-5.59-8.25-5.59-13.9v-18.42c0-5.8,1.9-10.53,5.71-14.18,3.8-3.65,8.57-5.48,14.29-5.48s10.32,1.7,14.01,5.08c3.69,3.39,5.54,8.06,5.54,14.01v10.06c0,.53-.21,1-.62,1.41s-.92.62-1.53.62h-28.82v6.89c0,3.39,1.05,6.12,3.16,8.19,2.11,2.07,4.82,3.11,8.14,3.11,6.4,0,10.06-2.6,10.96-7.8.3-1.28,1.02-1.92,2.15-1.92h4.29Zm-6.33-19.89c0-3.77-1.02-6.67-3.05-8.7s-4.78-3.05-8.25-3.05-5.99,1.04-8.02,3.11c-2.03,2.07-3.05,4.84-3.05,8.31v4.75h22.38v-4.41Z"></path>
    <path class="cls-6" d="m553.84,173.08c-.53,0-1-.21-1.41-.62s-.62-.92-.62-1.53v-23.84c-3.39,4.07-8.02,6.1-13.9,6.1-5.2,0-9.42-1.66-12.66-4.97-3.24-3.31-4.86-8.1-4.86-14.35v-18.42c0-6.03,1.73-10.81,5.2-14.35,3.46-3.54,7.91-5.31,13.33-5.31s9.64,1.92,13.11,5.76v-2.71c0-.6.21-1.11.62-1.53.42-.41.89-.62,1.41-.62h4.18c.53,0,1.02.23,1.47.68s.68.94.68,1.47v72.1c0,.53-.23,1.02-.68,1.47s-.94.68-1.47.68h-4.41Zm-2.03-57.18c0-3.84-1.07-6.8-3.22-8.87-2.15-2.07-4.88-3.11-8.19-3.11s-6.05,1-8.19,2.99c-2.15,2-3.22,4.84-3.22,8.53v18.42c0,3.62,1.05,6.38,3.16,8.31,2.11,1.92,4.82,2.88,8.14,2.88,3.54,0,6.35-1.15,8.42-3.45,2.07-2.3,3.11-5.56,3.11-9.78v-15.93Z"></path>
  </g>
  <g>
    <path class="cls-6" d="m45.66,250.98c-.13,0-.26-.11-.26-.26v-9.44c0-.14-.11-.26-.26-.26h-1.97c-.14,0-.27-.11-.27-.26v-.42c0-.14.13-.26.27-.26h5.51c.14,0,.27.11.27.26v.42c0,.14-.13.26-.27.26h-1.97c-.14,0-.26.11-.26.26v9.44c0,.14-.11.26-.24.26h-.56Z"></path>
    <path class="cls-6" d="m55.12,250.98c-.14,0-.24-.11-.24-.26v-5.01c0-1.14-.58-1.79-1.63-1.79s-1.83.74-1.83,1.79v5.01c0,.14-.11.26-.26.26h-.48c-.14,0-.24-.11-.24-.26v-10.37c0-.13.1-.26.24-.26h.48c.14,0,.26.13.26.26v3.71c.34-.54.98-1.06,2.03-1.06,1.55,0,2.4,1.01,2.4,2.61v5.11c0,.14-.11.26-.26.26h-.48Z"></path>
    <path class="cls-6" d="m63.22,248.61c.18,0,.26.16.26.29-.1,1.38-1.26,2.21-2.79,2.21s-2.77-1.09-2.77-2.74v-2.58c0-1.7,1.22-2.79,2.82-2.79s2.75.96,2.75,2.71v1.38c0,.14-.11.24-.24.24h-4.35v1.06c0,1.12.78,1.81,1.82,1.81.94,0,1.65-.46,1.78-1.34.02-.11.06-.24.26-.24h.46Zm-.7-2.82c0-1.22-.75-1.87-1.82-1.87s-1.79.7-1.79,1.84v.77h3.62v-.74Z"></path>
    <path class="cls-6" d="m67.67,243.55c-.19,0-.3-.16-.24-.34l.99-2.91c.05-.14.14-.21.27-.21h.24c.19,0,.29.13.26.29l-.69,2.95c-.02.13-.1.22-.24.22h-.59Z"></path>
    <path class="cls-6" d="m72.3,247.5v.77c0,.69.42,1.1,1.04,1.1.59,0,.94-.27,1.01-.82.03-.22.11-.27.37-.27h1.34c.19,0,.32.18.3.34-.11,1.58-1.31,2.48-3.07,2.48-1.86,0-3.06-1.04-3.06-2.87v-2.51c0-1.84,1.3-2.88,3.12-2.88s3.03.98,3.03,2.85v1.52c0,.16-.14.29-.3.29h-3.78Zm2.07-1.81c0-.72-.4-1.1-1.04-1.1s-1.02.42-1.02,1.09v.54h2.07v-.53Z"></path>
    <path class="cls-6" d="m83.6,242.97c.16,0,.3.14.3.3v10.26c0,.16-.14.3-.3.3h-1.46c-.16,0-.29-.14-.29-.3v-3.12c-.37.42-.96.69-1.79.69-1.67,0-2.37-1.07-2.37-2.87v-2.53c0-1.75.82-2.87,2.51-2.87.88,0,1.44.35,1.73.77v-.34c0-.16.14-.3.3-.3h1.36Zm-1.74,2.99c0-.88-.37-1.36-1.06-1.36s-1.06.42-1.06,1.31v2.11c0,.86.35,1.3,1.06,1.3.61,0,1.04-.4,1.06-1.17v-2.19Z"></path>
    <path class="cls-6" d="m85.34,243.55c-.18,0-.29-.13-.24-.3l.67-2.93c.03-.13.11-.22.24-.22h.61c.18,0,.29.16.22.34l-.99,2.91c-.05.13-.14.21-.26.21h-.26Z"></path>
    <path class="cls-6" d="m90.99,240.72c0-.4.34-.75.75-.75s.74.35.74.75-.34.75-.74.75-.75-.34-.75-.75Zm.5,10.26c-.13,0-.24-.11-.24-.26v-7.33c0-.13.11-.26.24-.26h.5c.13,0,.24.13.24.26v7.33c0,.14-.11.26-.24.26h-.5Z"></path>
    <path class="cls-6" d="m98.61,245.25c-.21,0-.24-.13-.26-.19-.14-.75-.79-1.14-1.63-1.14-.91,0-1.58.43-1.58,1.18,0,1.9,4.39,1.02,4.39,3.75,0,1.46-1.22,2.26-2.74,2.26-1.39,0-2.5-.69-2.71-2.06-.02-.1.05-.3.24-.3h.53c.18,0,.22.16.24.24.18.8.78,1.23,1.76,1.23s1.65-.48,1.65-1.26c0-2.02-4.35-1.07-4.35-3.73,0-1.36,1.17-2.21,2.64-2.21,1.26,0,2.35.56,2.58,1.95.02.11-.05.29-.24.29h-.51Z"></path>
    <path class="cls-6" d="m106.72,250.98c-1.6,0-2.26-.64-2.26-2.22v-4.74h-1.14c-.14,0-.26-.11-.26-.26v-.35c0-.14.11-.27.26-.27h1.14v-1.73c0-.13.1-.26.24-.26h.48c.14,0,.26.13.26.26v1.73h1.74c.14,0,.27.13.27.27v.35c0,.14-.13.26-.27.26h-1.74v4.61c0,1.04.37,1.47,1.41,1.47h.37c.14,0,.27.13.27.27v.35c0,.14-.13.26-.27.26h-.5Z"></path>
    <path class="cls-6" d="m113.56,250.98c-.14,0-.24-.11-.24-.26v-5.01c0-1.14-.58-1.79-1.63-1.79s-1.82.74-1.82,1.79v5.01c0,.14-.11.26-.26.26h-.48c-.14,0-.24-.11-.24-.26v-10.37c0-.13.1-.26.24-.26h.48c.14,0,.26.13.26.26v3.71c.34-.54.98-1.06,2.03-1.06,1.55,0,2.4,1.01,2.4,2.61v5.11c0,.14-.11.26-.26.26h-.48Z"></path>
    <path class="cls-6" d="m121.66,248.61c.18,0,.26.16.26.29-.1,1.38-1.26,2.21-2.79,2.21s-2.77-1.09-2.77-2.74v-2.58c0-1.7,1.22-2.79,2.82-2.79s2.75.96,2.75,2.71v1.38c0,.14-.11.24-.24.24h-4.35v1.06c0,1.12.79,1.81,1.83,1.81.94,0,1.65-.46,1.78-1.34.02-.11.06-.24.26-.24h.46Zm-.7-2.82c0-1.22-.75-1.87-1.83-1.87s-1.79.7-1.79,1.84v.77h3.62v-.74Z"></path>
    <path class="cls-6" d="m132.06,247.95c.16,0,.26.14.26.29,0,1.73-1.31,2.87-2.93,2.87s-2.9-1.15-2.9-2.85v-5.43c0-1.65,1.34-2.87,2.93-2.87s2.91,1.12,2.91,2.85c0,.14-.1.29-.26.29h-.54c-.13,0-.24-.13-.24-.26,0-1.15-.83-1.92-1.91-1.92-1.01,0-1.84.8-1.84,1.87v4.93c0,1.28.46,2.42,1.86,2.42,1.02,0,1.87-.78,1.87-1.94,0-.13.11-.26.24-.26h.54Z"></path>
    <path class="cls-6" d="m139.71,248.24c0,1.71-1.38,2.87-2.96,2.87s-2.95-1.14-2.95-2.87v-5.41c0-1.71,1.39-2.87,2.96-2.87s2.95,1.14,2.95,2.87v5.41Zm-1.04-5.41c0-1.14-.9-1.9-1.9-1.9s-1.91.78-1.91,1.9v5.43c0,1.1.88,1.9,1.91,1.9s1.9-.8,1.9-1.9v-5.43Z"></path>
    <path class="cls-6" d="m141.42,256.3c-.07,0-.14-.07-.14-.15v-.23c0-.08.04-.14.08-.21l2.2-3.13c.22-.32.45-.74.45-1.09,0-.58-.47-1.04-1.06-1.04-.52,0-1.04.43-1.04,1.07,0,.1-.05.16-.18.16h-.3c-.07,0-.15-.08-.15-.15,0-.92.75-1.65,1.69-1.65s1.63.67,1.63,1.58c0,.51-.25.99-.55,1.41l-1.99,2.76c-.05.06-.03.13.05.13h2.3c.08,0,.15.07.15.15v.25c0,.08-.07.14-.15.14h-3Z"></path>
    <path class="cls-6" d="m149.41,247.5v.77c0,.69.42,1.1,1.04,1.1.59,0,.94-.27,1.01-.82.03-.22.11-.27.37-.27h1.34c.19,0,.32.18.3.34-.11,1.58-1.31,2.48-3.07,2.48-1.86,0-3.06-1.04-3.06-2.87v-2.51c0-1.84,1.3-2.88,3.12-2.88s3.03.98,3.03,2.85v1.52c0,.16-.14.29-.3.29h-3.78Zm2.07-1.81c0-.72-.4-1.1-1.04-1.1s-1.02.42-1.02,1.09v.54h2.07v-.53Z"></path>
    <path class="cls-6" d="m160.71,242.97c.16,0,.3.14.3.3v10.26c0,.16-.14.3-.3.3h-1.46c-.16,0-.29-.14-.29-.3v-3.12c-.37.42-.96.69-1.79.69-1.67,0-2.37-1.07-2.37-2.87v-2.53c0-1.75.82-2.87,2.51-2.87.88,0,1.44.35,1.73.77v-.34c0-.16.14-.3.3-.3h1.36Zm-1.74,2.99c0-.88-.37-1.36-1.06-1.36s-1.06.42-1.06,1.31v2.11c0,.86.35,1.3,1.06,1.3.61,0,1.04-.4,1.06-1.17v-2.19Z"></path>
    <path class="cls-6" d="m167.75,250.98c-.13,0-.24-.11-.24-.26v-.67c-.34.54-.98,1.06-2.05,1.06-1.57,0-2.4-.99-2.4-2.59v-5.11c0-.14.11-.27.26-.27h.46c.14,0,.26.13.26.27v5.01c0,1.12.58,1.79,1.63,1.79s1.83-.75,1.83-1.79v-5.01c0-.14.11-.27.26-.27h.46c.14,0,.26.13.26.27v7.32c0,.14-.1.26-.24.26h-.48Z"></path>
    <path class="cls-6" d="m170.6,240.72c0-.4.34-.75.75-.75s.74.35.74.75-.34.75-.74.75-.75-.34-.75-.75Zm.5,10.26c-.13,0-.24-.11-.24-.26v-7.33c0-.13.11-.26.24-.26h.5c.13,0,.24.13.24.26v7.33c0,.14-.11.26-.24.26h-.5Z"></path>
    <path class="cls-6" d="m175.85,250.98c-.13,0-.19-.1-.22-.19l-2.32-7.32c-.06-.19.05-.34.21-.34h.56c.13,0,.19.1.22.22l1.84,6.04c.05.13.1.13.14,0l1.91-6.07c.05-.13.14-.19.24-.19h.5c.19,0,.29.16.24.34l-2.42,7.32c-.05.14-.14.19-.24.19h-.66Z"></path>
    <path class="cls-6" d="m185.11,250.98c-.13,0-.24-.11-.24-.26v-.64c-.38.54-1.06,1.02-2.16,1.02-1.47,0-2.48-.93-2.48-2.69v-2.66c0-1.68,1.04-2.75,2.62-2.75,1.02,0,1.63.48,2.02.98v-.59c0-.13.11-.26.24-.26h.46c.14,0,.26.13.26.26v7.33c0,.14-.11.26-.26.26h-.46Zm-.26-5.09c0-1.3-.8-1.97-1.86-1.97s-1.79.64-1.79,1.84v2.64c0,1.18.72,1.81,1.78,1.81s1.87-.75,1.87-2.06v-2.26Z"></path>
    <path class="cls-6" d="m188.45,250.98c-.13,0-.24-.11-.24-.26v-10.37c0-.13.11-.26.24-.26h.5c.13,0,.24.13.24.26v10.37c0,.14-.11.26-.24.26h-.5Z"></path>
    <path class="cls-6" d="m196.6,248.61c.18,0,.26.16.26.29-.1,1.38-1.26,2.21-2.79,2.21s-2.77-1.09-2.77-2.74v-2.58c0-1.7,1.22-2.79,2.82-2.79s2.75.96,2.75,2.71v1.38c0,.14-.11.24-.24.24h-4.35v1.06c0,1.12.78,1.81,1.83,1.81.94,0,1.65-.46,1.78-1.34.02-.11.06-.24.26-.24h.46Zm-.71-2.82c0-1.22-.75-1.87-1.82-1.87s-1.79.7-1.79,1.84v.77h3.62v-.74Z"></path>
    <path class="cls-6" d="m203.53,250.98c-.14,0-.24-.11-.24-.26v-5.01c0-1.14-.58-1.79-1.63-1.79s-1.83.74-1.83,1.79v5.01c0,.14-.11.26-.26.26h-.48c-.14,0-.24-.11-.24-.26v-7.33c0-.13.1-.26.24-.26h.48c.13,0,.24.13.24.26v.69c.34-.54.98-1.07,2.05-1.07,1.55,0,2.4,1.01,2.4,2.61v5.11c0,.14-.11.26-.26.26h-.48Z"></path>
    <path class="cls-6" d="m209.04,250.98c-1.6,0-2.26-.64-2.26-2.22v-4.74h-1.14c-.14,0-.26-.11-.26-.26v-.35c0-.14.11-.27.26-.27h1.14v-1.73c0-.13.1-.26.24-.26h.48c.14,0,.26.13.26.26v1.73h1.75c.14,0,.27.13.27.27v.35c0,.14-.13.26-.27.26h-1.75v4.61c0,1.04.37,1.47,1.41,1.47h.37c.14,0,.27.13.27.27v.35c0,.14-.13.26-.27.26h-.5Z"></path>
    <path class="cls-6" d="m219.33,248.29c0,1.76-1.22,2.82-2.85,2.82s-2.79-1.01-2.79-2.82v-2.45c0-1.76,1.22-2.83,2.83-2.83s2.8,1.02,2.8,2.83v2.45Zm-.99-2.48c0-1.18-.8-1.89-1.84-1.89s-1.82.7-1.82,1.89v2.53c0,1.17.8,1.86,1.82,1.86s1.84-.69,1.84-1.86v-2.53Z"></path>
    <path class="cls-6" d="m222.06,250.98c-.13,0-.24-.11-.24-.26v-6.71h-1.12c-.14,0-.27-.13-.27-.27v-.34c0-.14.13-.27.27-.27h1.12v-.8c0-1.58.67-2.24,2.26-2.24h.51c.14,0,.26.11.26.24v.42c0,.13-.11.24-.26.24h-.38c-1.04,0-1.39.45-1.39,1.49v.66h1.74c.14,0,.26.13.26.27v.34c0,.14-.11.27-.26.27h-1.74v6.71c0,.14-.13.26-.26.26h-.5Z"></path>
    <path class="cls-6" d="m233.63,250.98c-.13,0-.24-.11-.24-.26v-.64c-.38.54-1.06,1.02-2.16,1.02-1.47,0-2.48-.93-2.48-2.69v-2.66c0-1.68,1.04-2.75,2.62-2.75,1.02,0,1.63.48,2.02.98v-.59c0-.13.11-.26.24-.26h.46c.14,0,.26.13.26.26v7.33c0,.14-.11.26-.26.26h-.46Zm-.26-5.09c0-1.3-.8-1.97-1.86-1.97s-1.79.64-1.79,1.84v2.64c0,1.18.72,1.81,1.78,1.81s1.87-.75,1.87-2.06v-2.26Z"></path>
    <path class="cls-6" d="m236.98,250.98c-.13,0-.24-.11-.24-.26v-10.37c0-.13.11-.26.24-.26h.5c.13,0,.24.13.24.26v10.37c0,.14-.11.26-.24.26h-.5Z"></path>
    <path class="cls-6" d="m240.39,250.98c-.13,0-.24-.11-.24-.26v-10.37c0-.13.11-.26.24-.26h.5c.13,0,.24.13.24.26v10.37c0,.14-.11.26-.24.26h-.5Z"></path>
    <path class="cls-6" d="m45.49,273.12c-.13,0-.26-.1-.26-.24v-.42c0-.14.13-.26.26-.26h.5c1.06,0,1.79-.5,1.79-1.73v-1.18c-.4.54-1.06,1.01-2.14,1.01-1.47,0-2.48-.93-2.48-2.69v-2.66c0-1.68,1.04-2.75,2.63-2.75,1.02,0,1.63.48,2.02.98v-.59c0-.13.11-.26.24-.26h.46c.14,0,.26.13.26.26v7.92c0,1.65-1.02,2.61-2.66,2.61h-.61Zm2.29-8.02c0-1.3-.8-1.97-1.86-1.97s-1.79.64-1.79,1.84v2.62c0,1.18.72,1.79,1.78,1.79s1.87-.72,1.87-2.03v-2.26Z"></path>
    <path class="cls-6" d="m51.35,270.18c-.14,0-.24-.11-.24-.26v-7.33c0-.13.1-.26.24-.26h.48c.13,0,.24.13.24.26v.74c.37-.59.94-1.12,1.97-1.12.35,0,.66.05.88.14.14.06.22.19.13.37l-.29.48c-.08.16-.21.16-.34.11-.18-.08-.38-.13-.61-.13-1.14,0-1.73.91-1.73,2.05v4.69c0,.14-.11.26-.26.26h-.48Z"></path>
    <path class="cls-6" d="m61.19,267.81c.18,0,.26.16.26.29-.1,1.38-1.26,2.21-2.79,2.21s-2.77-1.09-2.77-2.74v-2.58c0-1.7,1.22-2.79,2.82-2.79s2.75.96,2.75,2.71v1.38c0,.14-.11.24-.24.24h-4.35v1.06c0,1.12.78,1.81,1.82,1.81.94,0,1.65-.46,1.78-1.34.02-.11.06-.24.26-.24h.46Zm-.7-2.82c0-1.22-.75-1.87-1.82-1.87s-1.79.7-1.79,1.84v.77h3.62v-.74Z"></path>
    <path class="cls-6" d="m68.46,267.81c.18,0,.26.16.26.29-.1,1.38-1.26,2.21-2.79,2.21s-2.77-1.09-2.77-2.74v-2.58c0-1.7,1.22-2.79,2.82-2.79s2.75.96,2.75,2.71v1.38c0,.14-.11.24-.24.24h-4.35v1.06c0,1.12.78,1.81,1.82,1.81.94,0,1.65-.46,1.78-1.34.02-.11.06-.24.26-.24h.46Zm-.7-2.82c0-1.22-.75-1.87-1.82-1.87s-1.79.7-1.79,1.84v.77h3.62v-.74Z"></path>
    <path class="cls-6" d="m75.39,270.18c-.14,0-.24-.11-.24-.26v-5.01c0-1.14-.58-1.79-1.63-1.79s-1.82.74-1.82,1.79v5.01c0,.14-.11.26-.26.26h-.48c-.14,0-.24-.11-.24-.26v-7.33c0-.13.1-.26.24-.26h.48c.13,0,.24.13.24.26v.69c.34-.54.98-1.07,2.05-1.07,1.55,0,2.4,1.01,2.4,2.61v5.11c0,.14-.11.26-.26.26h-.48Z"></path>
    <path class="cls-6" d="m83.15,270.18c-.14,0-.24-.11-.24-.26v-5.01c0-1.14-.58-1.79-1.63-1.79s-1.82.74-1.82,1.79v5.01c0,.14-.11.26-.26.26h-.48c-.14,0-.24-.11-.24-.26v-10.37c0-.13.1-.26.24-.26h.48c.14,0,.26.13.26.26v3.71c.34-.54.98-1.06,2.03-1.06,1.55,0,2.4,1.01,2.4,2.61v5.11c0,.14-.11.26-.26.26h-.48Z"></path>
    <path class="cls-6" d="m91.61,267.49c0,1.76-1.22,2.82-2.85,2.82s-2.79-1.01-2.79-2.82v-2.45c0-1.76,1.22-2.83,2.83-2.83s2.8,1.02,2.8,2.83v2.45Zm-.99-2.48c0-1.18-.8-1.89-1.84-1.89s-1.83.7-1.83,1.89v2.53c0,1.17.8,1.86,1.83,1.86s1.84-.69,1.84-1.86v-2.53Z"></path>
    <path class="cls-6" d="m98.38,270.18c-.13,0-.24-.11-.24-.26v-.67c-.34.54-.98,1.06-2.05,1.06-1.57,0-2.4-.99-2.4-2.59v-5.11c0-.14.11-.27.26-.27h.46c.14,0,.26.13.26.27v5.01c0,1.12.58,1.79,1.63,1.79s1.83-.75,1.83-1.79v-5.01c0-.14.11-.27.26-.27h.46c.14,0,.26.13.26.27v7.32c0,.14-.1.26-.24.26h-.48Z"></path>
    <path class="cls-6" d="m105.44,264.45c-.21,0-.24-.13-.26-.19-.14-.75-.79-1.14-1.63-1.14-.91,0-1.58.43-1.58,1.18,0,1.9,4.39,1.02,4.39,3.75,0,1.46-1.22,2.26-2.74,2.26-1.39,0-2.5-.69-2.71-2.06-.02-.1.05-.3.24-.3h.53c.18,0,.22.16.24.24.18.8.78,1.23,1.76,1.23s1.65-.48,1.65-1.26c0-2.02-4.35-1.07-4.35-3.73,0-1.36,1.17-2.21,2.64-2.21,1.26,0,2.35.56,2.58,1.95.02.11-.05.29-.24.29h-.51Z"></path>
    <path class="cls-6" d="m113.13,267.81c.18,0,.26.16.26.29-.1,1.38-1.26,2.21-2.79,2.21s-2.77-1.09-2.77-2.74v-2.58c0-1.7,1.22-2.79,2.82-2.79s2.75.96,2.75,2.71v1.38c0,.14-.11.24-.24.24h-4.35v1.06c0,1.12.79,1.81,1.83,1.81.94,0,1.65-.46,1.78-1.34.02-.11.06-.24.26-.24h.46Zm-.7-2.82c0-1.22-.75-1.87-1.83-1.87s-1.79.7-1.79,1.84v.77h3.62v-.74Z"></path>
    <path class="cls-6" d="m120.22,273.12c-.13,0-.26-.1-.26-.24v-.42c0-.14.13-.26.26-.26h.5c1.06,0,1.79-.5,1.79-1.73v-1.18c-.4.54-1.06,1.01-2.14,1.01-1.47,0-2.48-.93-2.48-2.69v-2.66c0-1.68,1.04-2.75,2.62-2.75,1.02,0,1.63.48,2.02.98v-.59c0-.13.11-.26.24-.26h.46c.14,0,.26.13.26.26v7.92c0,1.65-1.02,2.61-2.66,2.61h-.61Zm2.29-8.02c0-1.3-.8-1.97-1.86-1.97s-1.79.64-1.79,1.84v2.62c0,1.18.72,1.79,1.78,1.79s1.87-.72,1.87-2.03v-2.26Z"></path>
    <path class="cls-6" d="m130.45,270.18c-.13,0-.24-.11-.24-.26v-.64c-.38.54-1.06,1.02-2.16,1.02-1.47,0-2.48-.93-2.48-2.69v-2.66c0-1.68,1.04-2.75,2.62-2.75,1.02,0,1.63.48,2.02.98v-.59c0-.13.11-.26.24-.26h.46c.14,0,.26.13.26.26v7.33c0,.14-.11.26-.26.26h-.46Zm-.26-5.09c0-1.3-.8-1.97-1.86-1.97s-1.79.64-1.79,1.84v2.64c0,1.18.72,1.81,1.78,1.81s1.87-.75,1.87-2.06v-2.26Z"></path>
    <path class="cls-6" d="m137.51,264.45c-.21,0-.24-.13-.26-.19-.14-.75-.79-1.14-1.63-1.14-.91,0-1.58.43-1.58,1.18,0,1.9,4.39,1.02,4.39,3.75,0,1.46-1.22,2.26-2.74,2.26-1.39,0-2.5-.69-2.71-2.06-.02-.1.05-.3.24-.3h.53c.18,0,.22.16.24.24.18.8.78,1.23,1.76,1.23s1.65-.48,1.65-1.26c0-2.02-4.35-1.07-4.35-3.73,0-1.36,1.17-2.21,2.64-2.21,1.26,0,2.35.56,2.58,1.95.02.11-.05.29-.24.29h-.51Z"></path>
    <path class="cls-6" d="m145.21,267.81c.18,0,.26.16.26.29-.1,1.38-1.26,2.21-2.79,2.21s-2.77-1.09-2.77-2.74v-2.58c0-1.7,1.22-2.79,2.82-2.79s2.75.96,2.75,2.71v1.38c0,.14-.11.24-.24.24h-4.35v1.06c0,1.12.78,1.81,1.83,1.81.94,0,1.65-.46,1.78-1.34.02-.11.06-.24.26-.24h.46Zm-.71-2.82c0-1.22-.75-1.87-1.82-1.87s-1.79.7-1.79,1.84v.77h3.62v-.74Z"></path>
    <path class="cls-6" d="m151.45,264.45c-.21,0-.24-.13-.26-.19-.14-.75-.78-1.14-1.63-1.14-.91,0-1.58.43-1.58,1.18,0,1.9,4.39,1.02,4.39,3.75,0,1.46-1.22,2.26-2.74,2.26-1.39,0-2.5-.69-2.71-2.06-.02-.1.05-.3.24-.3h.53c.18,0,.22.16.24.24.18.8.78,1.23,1.76,1.23s1.65-.48,1.65-1.26c0-2.02-4.35-1.07-4.35-3.73,0-1.36,1.17-2.21,2.64-2.21,1.26,0,2.35.56,2.58,1.95.02.11-.05.29-.24.29h-.51Z"></path>
    <path class="cls-6" d="m156.68,259.92c0-.4.34-.75.75-.75s.74.35.74.75-.34.75-.74.75-.75-.34-.75-.75Zm.5,10.26c-.13,0-.24-.11-.24-.26v-7.33c0-.13.11-.26.24-.26h.5c.13,0,.24.13.24.26v7.33c0,.14-.11.26-.24.26h-.5Z"></path>
    <path class="cls-6" d="m164.99,270.18c-.14,0-.24-.11-.24-.26v-5.01c0-1.14-.58-1.79-1.63-1.79s-1.83.74-1.83,1.79v5.01c0,.14-.11.26-.26.26h-.48c-.14,0-.24-.11-.24-.26v-7.33c0-.13.1-.26.24-.26h.48c.13,0,.24.13.24.26v.69c.34-.54.98-1.07,2.05-1.07,1.55,0,2.4,1.01,2.4,2.61v5.11c0,.14-.11.26-.26.26h-.48Z"></path>
    <path class="cls-6" d="m176.21,267.49c0,1.76-1.22,2.82-2.85,2.82s-2.79-1.01-2.79-2.82v-2.45c0-1.76,1.22-2.83,2.83-2.83s2.8,1.02,2.8,2.83v2.45Zm-.99-2.48c0-1.18-.8-1.89-1.84-1.89s-1.82.7-1.82,1.89v2.53c0,1.17.8,1.86,1.82,1.86s1.84-.69,1.84-1.86v-2.53Z"></path>
    <path class="cls-6" d="m182.96,270.18c-.14,0-.24-.11-.24-.26v-5.01c0-1.14-.58-1.79-1.63-1.79s-1.83.74-1.83,1.79v5.01c0,.14-.11.26-.26.26h-.48c-.14,0-.24-.11-.24-.26v-7.33c0-.13.1-.26.24-.26h.48c.13,0,.24.13.24.26v.69c.34-.54.98-1.07,2.05-1.07,1.55,0,2.4,1.01,2.4,2.61v5.11c0,.14-.11.26-.26.26h-.48Z"></path>
    <path class="cls-6" d="m191.06,267.81c.18,0,.26.16.26.29-.1,1.38-1.26,2.21-2.79,2.21s-2.77-1.09-2.77-2.74v-2.58c0-1.7,1.22-2.79,2.82-2.79s2.75.96,2.75,2.71v1.38c0,.14-.11.24-.24.24h-4.35v1.06c0,1.12.78,1.81,1.83,1.81.94,0,1.65-.46,1.78-1.34.02-.11.06-.24.26-.24h.46Zm-.71-2.82c0-1.22-.75-1.87-1.82-1.87s-1.79.7-1.79,1.84v.77h3.62v-.74Z"></path>
    <path class="cls-6" d="m200.75,270.18c-.14,0-.24-.11-.24-.26v-5.01c0-1.14-.58-1.79-1.63-1.79s-1.83.74-1.83,1.79v5.01c0,.14-.11.26-.26.26h-.48c-.14,0-.24-.11-.24-.26v-7.33c0-.13.1-.26.24-.26h.48c.13,0,.24.13.24.26v.69c.34-.54.98-1.07,2.05-1.07,1.55,0,2.4,1.01,2.4,2.61v5.11c0,.14-.11.26-.26.26h-.48Z"></path>
    <path class="cls-6" d="m208.53,270.18c-.13,0-.24-.11-.24-.26v-.67c-.34.54-.98,1.06-2.05,1.06-1.57,0-2.4-.99-2.4-2.59v-5.11c0-.14.11-.27.26-.27h.46c.14,0,.26.13.26.27v5.01c0,1.12.58,1.79,1.63,1.79s1.83-.75,1.83-1.79v-5.01c0-.14.11-.27.26-.27h.46c.14,0,.26.13.26.27v7.32c0,.14-.1.26-.24.26h-.48Z"></path>
    <path class="cls-6" d="m220.46,270.18c-.13,0-.24-.11-.24-.26v-5.01c0-1.14-.51-1.78-1.55-1.78s-1.78.74-1.78,1.81v4.98c0,.14-.11.26-.26.26h-.48c-.14,0-.24-.11-.24-.26v-5.01c0-1.12-.51-1.78-1.57-1.78s-1.76.77-1.76,1.86v4.93c0,.14-.11.26-.26.26h-.48c-.14,0-.24-.11-.24-.26v-7.33c0-.13.1-.26.24-.26h.48c.13,0,.24.13.24.26v.69c.34-.54.93-1.07,2-1.07s1.78.5,2.1,1.36c.48-.88,1.18-1.36,2.19-1.36,1.57,0,2.34,1.01,2.34,2.61v5.11c0,.14-.11.26-.24.26h-.5Z"></path>
    <path class="cls-6" d="m223.87,270.18c-.14,0-.24-.11-.24-.26v-10.37c0-.13.1-.26.24-.26h.48c.14,0,.26.13.26.26v3.68c.37-.53,1.02-1.02,2.11-1.02,1.54,0,2.51.98,2.51,2.74v2.61c0,1.76-1.15,2.75-2.66,2.75-1.01,0-1.62-.45-1.98-.96v.58c0,.14-.11.26-.24.26h-.48Zm4.39-5.22c0-1.2-.7-1.84-1.76-1.84s-1.89.69-1.89,1.95v2.42c0,1.25.78,1.92,1.86,1.92s1.79-.66,1.79-1.84v-2.61Z"></path>
    <path class="cls-6" d="m236.32,267.81c.18,0,.26.16.26.29-.1,1.38-1.26,2.21-2.79,2.21s-2.77-1.09-2.77-2.74v-2.58c0-1.7,1.22-2.79,2.82-2.79s2.75.96,2.75,2.71v1.38c0,.14-.11.24-.24.24h-4.35v1.06c0,1.12.78,1.81,1.83,1.81.94,0,1.65-.46,1.78-1.34.02-.11.06-.24.26-.24h.46Zm-.71-2.82c0-1.22-.75-1.87-1.82-1.87s-1.79.7-1.79,1.84v.77h3.62v-.74Z"></path>
    <path class="cls-6" d="m238.82,270.18c-.14,0-.24-.11-.24-.26v-7.33c0-.13.1-.26.24-.26h.48c.13,0,.24.13.24.26v.74c.37-.59.94-1.12,1.97-1.12.35,0,.66.05.88.14.14.06.22.19.13.37l-.29.48c-.08.16-.21.16-.34.11-.18-.08-.38-.13-.61-.13-1.14,0-1.73.91-1.73,2.05v4.69c0,.14-.11.26-.26.26h-.48Z"></path>
  </g>
</svg>
